<mxfile host="app.diagrams.net" agent="Mozilla/5.0 (Windows NT 10.0; Win64; x64) AppleWebKit/537.36 (KHTML, like Gecko) Chrome/131.0.0.0 Safari/537.36 Edg/131.0.0.0" version="25.0.0">
  <diagram id="C5RBs43oDa-KdzZeNtuy" name="Page-1">
    <mxGraphModel dx="1282" dy="1816" grid="1" gridSize="10" guides="1" tooltips="1" connect="1" arrows="1" fold="1" page="1" pageScale="1" pageWidth="827" pageHeight="1169" math="0" shadow="0">
      <root>
        <mxCell id="WIyWlLk6GJQsqaUBKTNV-0" />
        <mxCell id="WIyWlLk6GJQsqaUBKTNV-1" parent="WIyWlLk6GJQsqaUBKTNV-0" />
        <mxCell id="dXZrPwUOUByoDF_3JCYS-4" value="Products" style="swimlane;fontStyle=0;childLayout=stackLayout;horizontal=1;startSize=26;fillColor=none;horizontalStack=0;resizeParent=1;resizeParentMax=0;resizeLast=0;collapsible=1;marginBottom=0;whiteSpace=wrap;html=1;" parent="WIyWlLk6GJQsqaUBKTNV-1" vertex="1">
          <mxGeometry x="260" y="-450" width="230" height="500" as="geometry" />
        </mxCell>
        <mxCell id="dXZrPwUOUByoDF_3JCYS-14" value="+ Product_ID : int(11)  // Mã sản phẩm&lt;br&gt;    + Title : Text&lt;div&gt;+ Handle : text&lt;br&gt;    + Vendor_ID : int(11)  // Mã nhà cung cấp&lt;br&gt;    + Type_ID : int(11)  // Mã loại sản phẩm&lt;br&gt;    + Industry_ID: int(11)  // Mã ngành hàng&lt;div&gt;+ Description : Text&lt;/div&gt;&lt;div&gt;+ Quote : Text&lt;br&gt;    + Price : Decimal&lt;br&gt;    + Compare_At_Price : Decimal&lt;br&gt;    + Cost_Price : Decimal&lt;br&gt;    + SKU : Text&lt;br&gt;    + Barcode : Text&lt;br&gt;    + Is_Inventory_Managed : Boolean&lt;br&gt;    + Is_Lot_Managed : Boolean&lt;br&gt;    + Allow_Backorder : Boolean&lt;br&gt;    + Allow_Shipping : Boolean&lt;/div&gt;&lt;div&gt;+ Weight : Decimal&lt;br&gt;    + Has_Multiple_Units : Boolean&lt;br&gt;    + Has_Variants : Boolean&lt;br&gt;    + Is_Promoted : Boolean&lt;/div&gt;&lt;div&gt;+ Meta_tittle : text&lt;/div&gt;&lt;div&gt;+Meta_desscription : text&lt;/div&gt;&lt;div&gt;    + Created_At : DateTime&lt;br&gt;    + Updated_At : DateTime&lt;br&gt;    + Created_By : int(11)  // Mã nhân viên tạo sản phẩm&lt;br&gt;    + Updated_By : int(11)  // Mã nhân viên cập nhật sản phẩm&lt;/div&gt;&lt;/div&gt;" style="text;whiteSpace=wrap;html=1;" parent="dXZrPwUOUByoDF_3JCYS-4" vertex="1">
          <mxGeometry y="26" width="230" height="474" as="geometry" />
        </mxCell>
        <mxCell id="dXZrPwUOUByoDF_3JCYS-15" value="Images" style="swimlane;fontStyle=0;childLayout=stackLayout;horizontal=1;startSize=26;fillColor=none;horizontalStack=0;resizeParent=1;resizeParentMax=0;resizeLast=0;collapsible=1;marginBottom=0;whiteSpace=wrap;html=1;" parent="WIyWlLk6GJQsqaUBKTNV-1" vertex="1">
          <mxGeometry x="520" y="-450" width="230" height="240" as="geometry" />
        </mxCell>
        <mxCell id="dXZrPwUOUByoDF_3JCYS-17" value="+ Image_ID : int(11)  // Mã hình ảnh sản phẩm&lt;br&gt;    + Product_ID : int(11)  // Mã sản phẩm (Khóa ngoại liên kết với bảng Product)&lt;br&gt;    + URL : Text&lt;br&gt;    + Description : Text&lt;br&gt;+ Created_At : DateTime&lt;br&gt;    + Updated_At : DateTime&lt;br&gt;    + Created_By : int(11)  // Mã nhân viên tạo hình ảnh&lt;br&gt;    + Updated_By : int(11)  // Mã nhân viên cập nhật hình ảnh" style="text;whiteSpace=wrap;html=1;" parent="dXZrPwUOUByoDF_3JCYS-15" vertex="1">
          <mxGeometry y="26" width="230" height="214" as="geometry" />
        </mxCell>
        <mxCell id="dXZrPwUOUByoDF_3JCYS-18" value="Vendor" style="swimlane;fontStyle=0;childLayout=stackLayout;horizontal=1;startSize=26;fillColor=none;horizontalStack=0;resizeParent=1;resizeParentMax=0;resizeLast=0;collapsible=1;marginBottom=0;whiteSpace=wrap;html=1;" parent="WIyWlLk6GJQsqaUBKTNV-1" vertex="1">
          <mxGeometry x="770" y="-450" width="230" height="310" as="geometry" />
        </mxCell>
        <mxCell id="dXZrPwUOUByoDF_3JCYS-20" value="+ Vendor_ID : int(11)  // Mã nhà cung cấp (Khóa chính)&lt;br&gt;    + Name : Text  // Tên nhà cung cấp&lt;br&gt;    + Address : Text  // Địa chỉ nhà cung cấp&lt;br&gt;    + Phone : Text  // Số điện thoại nhà cung cấp&lt;br&gt;    + Email : Text  // Địa chỉ email nhà cung cấp&lt;br&gt;    + Website : Text  // Website nhà cung cấp&lt;br&gt;    + Created_At : DateTime  // Thời gian tạo&lt;br&gt;    + Updated_At : DateTime  // Thời gian cập nhật&lt;br&gt;    + Created_By : int(11)  // Mã nhân viên tạo nhà cung cấp (Khóa ngoại từ bảng Employee)&lt;br&gt;    + Updated_By : int(11)  // Mã nhân viên cập nhật nhà cung cấp (Khóa ngoại từ bảng Employee)" style="text;whiteSpace=wrap;html=1;" parent="dXZrPwUOUByoDF_3JCYS-18" vertex="1">
          <mxGeometry y="26" width="230" height="284" as="geometry" />
        </mxCell>
        <mxCell id="dXZrPwUOUByoDF_3JCYS-21" value="Tag_Product" style="swimlane;fontStyle=0;childLayout=stackLayout;horizontal=1;startSize=26;fillColor=none;horizontalStack=0;resizeParent=1;resizeParentMax=0;resizeLast=0;collapsible=1;marginBottom=0;whiteSpace=wrap;html=1;" parent="WIyWlLk6GJQsqaUBKTNV-1" vertex="1">
          <mxGeometry x="520" y="-190" width="230" height="106" as="geometry" />
        </mxCell>
        <mxCell id="dXZrPwUOUByoDF_3JCYS-23" value="+ ID : int(11)  // Mã thẻ sản phẩm&#xa;    + Name : Text&#xa;    + Created_At : DateTime&#xa;    + Updated_At : DateTime" style="text;whiteSpace=wrap;html=1;" parent="dXZrPwUOUByoDF_3JCYS-21" vertex="1">
          <mxGeometry y="26" width="230" height="80" as="geometry" />
        </mxCell>
        <mxCell id="dXZrPwUOUByoDF_3JCYS-24" value="Product_Group_Conditions" style="swimlane;fontStyle=0;childLayout=stackLayout;horizontal=1;startSize=26;fillColor=none;horizontalStack=0;resizeParent=1;resizeParentMax=0;resizeLast=0;collapsible=1;marginBottom=0;whiteSpace=wrap;html=1;" parent="WIyWlLk6GJQsqaUBKTNV-1" vertex="1">
          <mxGeometry x="770" y="-40" width="230" height="400" as="geometry" />
        </mxCell>
        <mxCell id="XDRdJSzKToVD4IolV8Kn-4" value="+ Condition_Id INT PRIMARY KEY AUTO_INCREMENT, -- ID Điều Kiện (Khóa Chính)&#xa;    + Product_Group_Id INT NOT NULL, -- ID Nhóm Sản Phẩm (Khóa Ngoại Từ Bảng ProductGroup)&#xa;    + Source_Type ENUM(&#39;manual&#39;, &#39;auto&#39;) DEFAULT &#39;manual&#39;, -- Loại Nguồn Sản Phẩm&#xa;    + Product_Attribute ENUM(&#39;Tên sản phẩm&#39;, &#39;Loại sản phẩm&#39;, &#39;Nhà cung cấp&#39;, &#xa;                             &#39;Giá sản phẩm&#39;, &#39;Tag sản phẩm&#39;, &#39;Giá so sánh&#39;, &#xa;                             &#39;Trọng lượng&#39;, &#39;Số lượng tồn kho&#39;, &#39;Tên biến thể&#39;) NOT NULL, -- Thuộc Tính Sản Phẩm Để So Sánh&#xa;    + Comparison_Operator ENUM(&#39;bằng&#39;, &#39;không bằng&#39;, &#39;bắt đầu với&#39;, &#39;kết thúc với&#39;, &#39;có chứa&#39;, &#39;không chứa&#39;) NOT NULL, -- Toán Tử So Sánh&#xa;    + Comparison_Value VARCHAR(255), -- Giá Trị Để So Sánh Với Thuộc Tính Sản Phẩm&#xa;    + Match_Type ENUM(&#39;all&#39;, &#39;any&#39;) NOT NULL -- Loại Phù Hợp (&#39;all&#39; Hoặc &#39;any&#39;)" style="text;whiteSpace=wrap;" parent="dXZrPwUOUByoDF_3JCYS-24" vertex="1">
          <mxGeometry y="26" width="230" height="374" as="geometry" />
        </mxCell>
        <mxCell id="dXZrPwUOUByoDF_3JCYS-27" value="Branch" style="swimlane;fontStyle=0;childLayout=stackLayout;horizontal=1;startSize=26;fillColor=none;horizontalStack=0;resizeParent=1;resizeParentMax=0;resizeLast=0;collapsible=1;marginBottom=0;whiteSpace=wrap;html=1;" parent="WIyWlLk6GJQsqaUBKTNV-1" vertex="1">
          <mxGeometry x="1020" y="-450" width="230" height="340" as="geometry" />
        </mxCell>
        <mxCell id="dXZrPwUOUByoDF_3JCYS-29" value="+ ID : int(11)  // Mã chi nhánh (Khóa chính)&#xa;    + Name : Text  // Tên chi nhánh&#xa;    + Address : Text  // Địa chỉ chi nhánh&#xa;    + Phone : Text  // Số điện thoại của chi nhánh&#xa;    + Email : Text  // Email của chi nhánh (nếu có)&#xa;    + Manager_ID : int(11)  // Mã nhân viên quản lý chi nhánh (Khóa ngoại từ bảng Employee)&#xa;    + Created_At : DateTime  // Thời gian tạo chi nhánh&#xa;    + Updated_At : DateTime  // Thời gian cập nhật chi nhánh&#xa;    + Created_By : int(11)  // Mã nhân viên tạo chi nhánh (Khóa ngoại từ bảng Employee)&#xa;    + Updated_By : int(11)  // Mã nhân viên cập nhật chi nhánh (Khóa ngoại từ bảng Employee)" style="text;whiteSpace=wrap;html=1;" parent="dXZrPwUOUByoDF_3JCYS-27" vertex="1">
          <mxGeometry y="26" width="230" height="314" as="geometry" />
        </mxCell>
        <mxCell id="dXZrPwUOUByoDF_3JCYS-32" value="Product_Group" style="swimlane;fontStyle=0;childLayout=stackLayout;horizontal=1;startSize=26;fillColor=none;horizontalStack=0;resizeParent=1;resizeParentMax=0;resizeLast=0;collapsible=1;marginBottom=0;whiteSpace=wrap;html=1;" parent="WIyWlLk6GJQsqaUBKTNV-1" vertex="1">
          <mxGeometry x="520" y="-60" width="230" height="290" as="geometry" />
        </mxCell>
        <mxCell id="dXZrPwUOUByoDF_3JCYS-34" value="+ group_id : int(11)  // Mã nhóm sản phẩm&lt;br&gt;    + group_name : Text  // Tên nhóm sản phẩm&lt;br&gt;    + description : Text  // Mô tả nhóm sản phẩm&lt;div&gt;+ Image_ID : int(11) // Mã hình ảnh sản phẩm&lt;br&gt;&lt;div&gt;&lt;div&gt;+ Meta_tittle : text&lt;/div&gt;&lt;div&gt;+ Meta_desscription : text&lt;/div&gt;+ Created_At : datetime&amp;nbsp;&lt;br&gt;+ Updated_At : datetime&amp;nbsp;&lt;br&gt;+ Created_By :&amp;nbsp;&lt;span class=&quot;hljs-type&quot;&gt;int&lt;/span&gt;(&lt;span class=&quot;hljs-number&quot;&gt;11&lt;/span&gt;)&amp;nbsp;&lt;br&gt;+ Updated_By :&amp;nbsp;&lt;span class=&quot;hljs-type&quot;&gt;int&lt;/span&gt;(&lt;span class=&quot;hljs-number&quot;&gt;11&lt;/span&gt;)&lt;/div&gt;&lt;/div&gt;" style="text;whiteSpace=wrap;html=1;" parent="dXZrPwUOUByoDF_3JCYS-32" vertex="1">
          <mxGeometry y="26" width="230" height="264" as="geometry" />
        </mxCell>
        <mxCell id="rBVY1GTn74F6SsE8izdQ-1" value="Price_list" style="swimlane;fontStyle=0;childLayout=stackLayout;horizontal=1;startSize=26;fillColor=none;horizontalStack=0;resizeParent=1;resizeParentMax=0;resizeLast=0;collapsible=1;marginBottom=0;whiteSpace=wrap;html=1;" parent="WIyWlLk6GJQsqaUBKTNV-1" vertex="1">
          <mxGeometry x="1020" y="-40" width="230" height="340" as="geometry" />
        </mxCell>
        <mxCell id="rBVY1GTn74F6SsE8izdQ-8" value="&lt;span class=&quot;hljs-operator&quot;&gt;+&lt;/span&gt; Id &lt;span class=&quot;hljs-type&quot;&gt;INT&lt;/span&gt; AUTO_INCREMENT &lt;span class=&quot;hljs-keyword&quot;&gt;PRIMARY&lt;/span&gt; KEY,&lt;br&gt;&lt;span class=&quot;hljs-operator&quot;&gt;+&lt;/span&gt; Price_List_Name &lt;span class=&quot;hljs-type&quot;&gt;VARCHAR&lt;/span&gt;(&lt;span class=&quot;hljs-number&quot;&gt;255&lt;/span&gt;) &lt;span class=&quot;hljs-keyword&quot;&gt;NOT&lt;/span&gt; &lt;span class=&quot;hljs-keyword&quot;&gt;NULL&lt;/span&gt;, &lt;span class=&quot;hljs-comment&quot;&gt;-- Name of the price list&lt;/span&gt;&lt;br&gt;&lt;span class=&quot;hljs-operator&quot;&gt;+&lt;/span&gt; Description TEXT, &lt;span class=&quot;hljs-comment&quot;&gt;-- Description&lt;/span&gt;&lt;div&gt;&lt;span class=&quot;hljs-operator&quot;&gt;+&lt;/span&gt; Product_Id &lt;span class=&quot;hljs-type&quot;&gt;INT&lt;/span&gt; &lt;span class=&quot;hljs-keyword&quot;&gt;NOT&lt;/span&gt; &lt;span class=&quot;hljs-keyword&quot;&gt;NULL&lt;/span&gt;, &lt;span class=&quot;hljs-comment&quot;&gt;-- Product ID associated with the price list&lt;/span&gt;&amp;nbsp;&lt;/div&gt;&lt;div&gt;&lt;span class=&quot;hljs-operator&quot;&gt;+&lt;/span&gt; Product_Price &lt;span class=&quot;hljs-type&quot;&gt;DECIMAL&lt;/span&gt;(&lt;span class=&quot;hljs-number&quot;&gt;10&lt;/span&gt;, &lt;span class=&quot;hljs-number&quot;&gt;2&lt;/span&gt;) &lt;span class=&quot;hljs-keyword&quot;&gt;NOT&lt;/span&gt; &lt;span class=&quot;hljs-keyword&quot;&gt;NULL&lt;/span&gt; &lt;span class=&quot;hljs-comment&quot;&gt;-- Product price in the price list&lt;/span&gt;&lt;br&gt;&lt;span class=&quot;hljs-operator&quot;&gt;+&lt;/span&gt; Start_Time DATETIME &lt;span class=&quot;hljs-keyword&quot;&gt;NOT&lt;/span&gt; &lt;span class=&quot;hljs-keyword&quot;&gt;NULL&lt;/span&gt;, &lt;span class=&quot;hljs-comment&quot;&gt;-- Start time of the price list&lt;/span&gt;&lt;br&gt;&lt;span class=&quot;hljs-operator&quot;&gt;+&lt;/span&gt; End_Time DATETIME, &lt;span class=&quot;hljs-comment&quot;&gt;-- End time of the price list&lt;/span&gt;&lt;br&gt;&lt;span class=&quot;hljs-operator&quot;&gt;+&lt;/span&gt; Status &lt;span class=&quot;hljs-type&quot;&gt;VARCHAR&lt;/span&gt;(&lt;span class=&quot;hljs-number&quot;&gt;50&lt;/span&gt;) &lt;span class=&quot;hljs-keyword&quot;&gt;NOT&lt;/span&gt; &lt;span class=&quot;hljs-keyword&quot;&gt;NULL&lt;/span&gt; &lt;span class=&quot;hljs-keyword&quot;&gt;DEFAULT&lt;/span&gt; &lt;span class=&quot;hljs-string&quot;&gt;&#39;Active&#39;&lt;/span&gt;, &lt;span class=&quot;hljs-comment&quot;&gt;-- Status of the price list&lt;/span&gt;&lt;br&gt;&lt;span class=&quot;hljs-operator&quot;&gt;+&lt;/span&gt; Created_By &lt;span class=&quot;hljs-type&quot;&gt;VARCHAR&lt;/span&gt;(&lt;span class=&quot;hljs-number&quot;&gt;255&lt;/span&gt;) &lt;span class=&quot;hljs-keyword&quot;&gt;NOT&lt;/span&gt; &lt;span class=&quot;hljs-keyword&quot;&gt;NULL&lt;/span&gt;, &lt;span class=&quot;hljs-comment&quot;&gt;-- Creator&#39;s email&lt;/span&gt;&lt;br&gt;&lt;span class=&quot;hljs-operator&quot;&gt;+&lt;/span&gt; Created_At DATETIME &lt;span class=&quot;hljs-keyword&quot;&gt;DEFAULT&lt;/span&gt; &lt;span class=&quot;hljs-built_in&quot;&gt;CURRENT_TIMESTAMP&lt;/span&gt; &lt;span class=&quot;hljs-comment&quot;&gt;-- Creation timestamp&lt;/span&gt;&lt;/div&gt;" style="text;whiteSpace=wrap;html=1;" parent="rBVY1GTn74F6SsE8izdQ-1" vertex="1">
          <mxGeometry y="26" width="230" height="314" as="geometry" />
        </mxCell>
        <mxCell id="rBVY1GTn74F6SsE8izdQ-4" value="Price_list_history" style="swimlane;fontStyle=0;childLayout=stackLayout;horizontal=1;startSize=26;fillColor=none;horizontalStack=0;resizeParent=1;resizeParentMax=0;resizeLast=0;collapsible=1;marginBottom=0;whiteSpace=wrap;html=1;" parent="WIyWlLk6GJQsqaUBKTNV-1" vertex="1">
          <mxGeometry x="1330" y="-70" width="230" height="170" as="geometry" />
        </mxCell>
        <mxCell id="rBVY1GTn74F6SsE8izdQ-9" value="&lt;span class=&quot;hljs-operator&quot;&gt;+&lt;/span&gt; Id &lt;span class=&quot;hljs-type&quot;&gt;INT&lt;/span&gt; AUTO_INCREMENT &lt;span class=&quot;hljs-keyword&quot;&gt;PRIMARY&lt;/span&gt; KEY,&#xa;&lt;span class=&quot;hljs-operator&quot;&gt;+&lt;/span&gt; Price_List_Id &lt;span class=&quot;hljs-type&quot;&gt;INT&lt;/span&gt; &lt;span class=&quot;hljs-keyword&quot;&gt;NOT&lt;/span&gt; &lt;span class=&quot;hljs-keyword&quot;&gt;NULL&lt;/span&gt;,&#xa;&lt;span class=&quot;hljs-operator&quot;&gt;+&lt;/span&gt; Change_Details TEXT &lt;span class=&quot;hljs-keyword&quot;&gt;NOT&lt;/span&gt; &lt;span class=&quot;hljs-keyword&quot;&gt;NULL&lt;/span&gt;,&#xa;&lt;span class=&quot;hljs-operator&quot;&gt;+&lt;/span&gt; Performed_By &lt;span class=&quot;hljs-type&quot;&gt;VARCHAR&lt;/span&gt;(&lt;span class=&quot;hljs-number&quot;&gt;255&lt;/span&gt;) &lt;span class=&quot;hljs-keyword&quot;&gt;NOT&lt;/span&gt; &lt;span class=&quot;hljs-keyword&quot;&gt;NULL&lt;/span&gt;,&#xa;&lt;span class=&quot;hljs-operator&quot;&gt;+&lt;/span&gt; Performed_At DATETIME &lt;span class=&quot;hljs-keyword&quot;&gt;DEFAULT&lt;/span&gt; &lt;span class=&quot;hljs-built_in&quot;&gt;CURRENT_TIMESTAMP&lt;/span&gt;" style="text;whiteSpace=wrap;html=1;" parent="rBVY1GTn74F6SsE8izdQ-4" vertex="1">
          <mxGeometry y="26" width="230" height="144" as="geometry" />
        </mxCell>
        <mxCell id="rBVY1GTn74F6SsE8izdQ-10" value="Price_list_conditions" style="swimlane;fontStyle=0;childLayout=stackLayout;horizontal=1;startSize=26;fillColor=none;horizontalStack=0;resizeParent=1;resizeParentMax=0;resizeLast=0;collapsible=1;marginBottom=0;whiteSpace=wrap;html=1;" parent="WIyWlLk6GJQsqaUBKTNV-1" vertex="1">
          <mxGeometry x="1260" y="160" width="230" height="280" as="geometry" />
        </mxCell>
        <mxCell id="rBVY1GTn74F6SsE8izdQ-14" value="+ Condition_Id INT AUTO_INCREMENT PRIMARY KEY, -- ID Điều Kiện&#xa;+ Price_List_Id INT NOT NULL, -- ID Bảng Giá&#xa;+ Channel ENUM(&#39;POS&#39;, &#39;Harasocial&#39;, &#39;All&#39;) DEFAULT &#39;All&#39;, -- POS, Harasocial Hoặc Tất Cả&#xa;+ Branch ENUM (&#39;All&#39;, &#39;Branch_id&#39;)  DEFAULT &#39;All,&#xa;+ Applicable_to ENUM(&#39;All_customers&#39;, &#39;customer_groups&#39;, &#39;specific_customers&#39;) DEFAULT &#39;all_customers&#39;, &#xa;+ Employee ENUM (&#39;All_employee&#39;, &#39;Employee_id&#39;) DEFAULT &#39;All_employee&#39;" style="text;whiteSpace=wrap;" parent="rBVY1GTn74F6SsE8izdQ-10" vertex="1">
          <mxGeometry y="26" width="230" height="254" as="geometry" />
        </mxCell>
      </root>
    </mxGraphModel>
  </diagram>
</mxfile>
